<svg width="855" height="277" viewBox="0 0 855 277" fill="none" xmlns="http://www.w3.org/2000/svg">
<path d="M435.96 225.07H451.93V220.06H435.96V211.54H453.97V206.44H429.82V239.2H454.63V234.1H435.96V225.07ZM489.17 218.1C489.17 210.85 483.78 206.45 475.09 206.45H461.48V239.21H467.62V229.66H475.09C475.52 229.66 475.94 229.66 476.37 229.61L483.13 239.2H489.75L482.14 228.44C486.63 226.71 489.18 223.06 489.18 218.1H489.17ZM474.81 224.65H467.63V211.6H474.81C480.2 211.6 482.99 213.99 482.99 218.1C482.99 222.21 480.2 224.65 474.81 224.65ZM496.03 239.2H502.17V206.44H496.03V239.2ZM443.1 203.78L451.32 197.37H444.37L437.99 203.78H443.09H443.1ZM537.52 241.73C535.58 241.73 533.88 240.98 531.99 238.97C539.36 236.91 544.37 230.73 544.37 222.83C544.37 213.1 536.81 205.99 526.55 205.99C516.29 205.99 508.73 213.15 508.73 222.83C508.73 231.91 515.39 238.79 524.66 239.58C529.53 244.63 532.88 246.36 537.37 246.36C540.87 246.36 543.84 245 546.02 242.48L543.18 239.11C541.57 240.84 539.68 241.73 537.51 241.73H537.52ZM514.93 222.82C514.93 216.13 519.89 211.31 526.56 211.31C533.23 211.31 538.19 216.13 538.19 222.82C538.19 229.51 533.23 234.33 526.56 234.33C519.89 234.33 514.93 229.51 514.93 222.82ZM415.78 206.44L402.88 228.15L389.74 206.44H384.68V239.2H390.54V217.77L401.41 235.46H404.15L415.02 217.49L415.07 239.2H420.88L420.83 206.44H415.77H415.78ZM370.03 224.69C370.03 231.43 367.01 234.33 361.67 234.33C356.33 234.33 353.26 231.43 353.26 224.69V206.44H347.11V224.92C347.11 234.47 352.55 239.66 361.62 239.66C370.69 239.66 376.08 234.46 376.08 224.92V206.44H370.03V224.69ZM332.41 228.62L314.17 206.44H309.11V239.2H315.21V217.02L333.45 239.2H338.51V206.44H332.41V228.62ZM814.6 211.31C817.88 211.31 820.71 212.57 823 215.15L826.77 211.45C823.85 207.89 819.45 205.98 814.32 205.98C804.66 205.98 797.47 213.05 797.47 222.82C797.47 232.59 804.66 239.67 814.27 239.67C819.43 239.67 823.84 237.75 826.76 234.19L822.99 230.45C820.7 233.07 817.87 234.33 814.59 234.33C808.08 234.33 803.36 229.56 803.36 222.82C803.36 216.08 808.08 211.31 814.59 211.31H814.6ZM776.24 206.44L762.09 239.2H768.11L771.21 231.62H786.94L790.08 239.2H796.19L782 206.44H776.25H776.24ZM773.18 226.84L779.07 212.52L785 226.84H773.18ZM748.88 206.44H735.94V239.2H741.78V229.75H748.88C757.15 229.75 762.27 225.3 762.27 218.1C762.27 210.9 757.15 206.45 748.88 206.45V206.44ZM748.61 224.6H741.78V211.59H748.61C753.73 211.59 756.38 213.98 756.38 218.09C756.38 222.2 753.73 224.59 748.61 224.59V224.6ZM827.98 206.44V211.59H838.4V239.2H844.24V211.59H854.66V206.44H827.97H827.98ZM722.6 206.44L710.34 228.15L697.85 206.44H693.04V239.2H698.61V217.77L708.94 235.46H711.55L721.88 217.49L721.92 239.2H727.45L727.41 206.44H722.6ZM642.37 206.44L628.22 239.2H634.24L637.34 231.62H653.07L656.21 239.2H662.32L648.13 206.44H642.38H642.37ZM639.31 226.84L645.2 212.52L651.13 226.84H639.31ZM594.32 225.06H610.29V220.05H594.32V211.53H612.33V206.43H588.18V239.19H612.99V234.09H594.32V225.06ZM573.53 224.69C573.53 231.43 570.51 234.33 565.17 234.33C559.83 234.33 556.76 231.43 556.76 224.69V206.44H550.62V224.92C550.62 234.47 556.05 239.66 565.13 239.66C574.21 239.66 579.59 234.46 579.59 224.92V206.44H573.54V224.69H573.53ZM649.02 203.77L642.96 197.36H636.35L644.17 203.77H649.02ZM678.71 239.19H684.55V206.43H678.71V239.19Z" fill="white"/>
<path d="M438.9 56.31H419.64C417.8 56.31 416.31 57.8 416.31 59.64V78.9C416.31 80.74 417.8 82.23 419.64 82.23H438.9C440.74 82.23 442.23 80.74 442.23 78.9V59.64C442.23 57.8 440.74 56.31 438.9 56.31Z" fill="#93C23B"/>
<path d="M522.66 168.86C538.03 168.86 554.29 164.32 566.45 155.8C567.34 155.18 567.85 154.15 567.85 153.07V113.24C567.85 111.4 566.36 109.91 564.52 109.91H547.56C545.72 109.91 544.23 111.4 544.23 113.24V140.24C544.23 141.51 543.52 142.7 542.37 143.24C536.44 146.02 530.47 147.05 524.11 147.05C502.72 147.05 487.87 132.35 487.87 111.64C487.87 90.93 502.72 76.23 524.43 76.23C534.78 76.23 543.54 79.53 551.18 86.6C552.44 87.76 554.39 87.75 555.65 86.6L567.44 75.83C568.85 74.54 568.88 72.33 567.53 70.98C556.74 60.16 541.39 54.43 523.15 54.43C487.55 54.43 461.68 78.3 461.68 111.65C461.68 145 487.54 168.87 522.67 168.87L522.66 168.86ZM419.67 166.96H438.87C440.71 166.96 442.2 165.47 442.2 163.63V94.03C442.2 92.19 440.71 90.7 438.87 90.7H419.67C417.83 90.7 416.34 92.19 416.34 94.03V163.63C416.34 165.47 417.83 166.96 419.67 166.96ZM398.63 134.56C398.63 93.94 333.65 108 333.65 87.61C333.65 80.65 339.56 74.96 354.88 74.96C363.79 74.96 373.34 77.26 382.73 81.99C384.44 82.85 386.53 82.01 387.25 80.24L392.73 66.9C393.39 65.3 392.71 63.49 391.19 62.67C381.09 57.2 367.93 54.41 355.04 54.41C323.27 54.41 307.94 70.06 307.94 88.87C307.94 129.97 372.92 115.74 372.92 136.45C372.92 143.25 366.69 148.31 351.37 148.31C339.38 148.31 326.88 144.52 317.63 138.86C315.92 137.82 313.7 138.49 312.87 140.31L306.85 153.53C306.16 155.04 306.68 156.82 308.07 157.72C318.29 164.39 334.82 168.85 351.2 168.85C383.13 168.85 398.62 153.04 398.62 134.55L398.63 134.56ZM849.7 166.96C852.12 166.96 853.73 164.46 852.74 162.26L805.78 58.28C805.24 57.09 804.05 56.32 802.74 56.32H781.5C780.19 56.32 779 57.09 778.46 58.28L731.65 162.26C730.66 164.47 732.27 166.96 734.69 166.96H753.82C755.17 166.96 756.38 166.15 756.9 164.91L765.6 144.07C765.81 143.57 766.29 143.25 766.83 143.25H816.94C817.48 143.25 817.96 143.57 818.17 144.07L826.87 164.91C827.39 166.15 828.6 166.96 829.95 166.96H849.71H849.7ZM808.18 123.81H775.74C775.03 123.81 774.54 123.08 774.82 122.42L790.73 84.38C791.19 83.29 792.73 83.29 793.19 84.38L809.1 122.42C809.38 123.08 808.89 123.81 808.18 123.81ZM693.32 109.12L693.46 163.64C693.46 165.48 694.96 166.96 696.79 166.96H714.39C716.23 166.96 717.73 165.46 717.72 163.62L717.42 59.64C717.42 57.8 715.92 56.32 714.09 56.32H698.07C696.9 56.32 695.81 56.94 695.21 57.94L654.99 125.08L614.14 57.92C613.54 56.93 612.46 56.32 611.29 56.32H595.1C593.26 56.32 591.77 57.81 591.77 59.65V163.63C591.77 165.47 593.26 166.96 595.1 166.96H612.7C614.54 166.96 616.03 165.47 616.03 163.63V110.51C616.03 109.81 616.95 109.55 617.32 110.14L647.78 159.72C648.39 160.71 649.46 161.31 650.62 161.31H658.53C659.7 161.31 660.78 160.7 661.39 159.69L692.02 108.76C692.38 108.16 693.31 108.41 693.32 109.12Z" fill="white"/>
<path d="M144.67 276.91C144.15 276.91 143.62 276.87 143.09 276.78C132.83 275.07 122.75 272.05 113.15 267.8C50.57 240.1 22.19 166.65 49.89 104.07C57.33 87.27 74.01 76.11 92.38 75.66C97.68 75.53 102.04 79.7 102.17 84.97C102.3 90.24 98.13 94.63 92.86 94.76C81.83 95.04 71.83 101.73 67.36 111.81C43.93 164.76 67.94 226.9 120.89 250.34C129.03 253.94 137.55 256.5 146.23 257.94C151.43 258.81 154.95 263.73 154.09 268.93C153.31 273.6 149.26 276.92 144.68 276.92L144.67 276.91Z" fill="#93C23B"/>
<path d="M163.38 163.86C162.09 163.86 160.78 163.6 159.52 163.04C154.7 160.91 152.52 155.26 154.65 150.44C161.87 134.12 162.31 115.96 155.88 99.31C149.45 82.66 136.92 69.51 120.59 62.29C106.44 56.03 90.47 54.87 75.6 59.03C70.52 60.45 65.25 57.48 63.83 52.4C62.41 47.32 65.38 42.05 70.46 40.63C89.59 35.28 110.14 36.77 128.33 44.82C149.32 54.11 165.43 71.02 173.71 92.43C181.98 113.84 181.42 137.19 172.13 158.18C170.55 161.75 167.05 163.87 163.39 163.87L163.38 163.86Z" fill="white"/>
<path d="M22.49 222.85C18.75 222.85 15.21 220.64 13.67 216.98C-3.73001 175.4 -3.27001 129.82 14.97 88.62C20.51 76.11 28.65 65.42 39.19 56.83C43.28 53.5 49.3 54.11 52.63 58.2C55.96 62.29 55.35 68.31 51.26 71.64C43.08 78.31 36.75 86.63 32.44 96.36C16.35 132.71 15.95 172.93 31.3 209.61C33.34 214.48 31.04 220.07 26.18 222.11C24.98 222.61 23.73 222.85 22.5 222.85H22.49Z" fill="white"/>
<path d="M163.45 240.24C151.54 240.24 139.65 237.77 128.63 232.89C85.3 213.71 65.65 162.86 84.83 119.54C86.96 114.72 92.61 112.53 97.43 114.67C102.25 116.81 104.43 122.45 102.3 127.27C87.39 160.96 102.67 200.51 136.36 215.42C150.51 221.68 166.49 222.84 181.35 218.68C186.43 217.26 191.7 220.23 193.12 225.31C194.54 230.39 191.57 235.66 186.49 237.08C178.95 239.19 171.19 240.23 163.44 240.23L163.45 240.24Z" fill="white"/>
<path d="M211.74 223.04C208.97 223.04 206.22 221.84 204.33 219.52C201 215.43 201.61 209.41 205.7 206.08C213.88 199.41 220.21 191.09 224.52 181.36C240.61 145.01 241.01 104.79 225.67 68.11C223.63 63.24 225.93 57.65 230.79 55.61C235.66 53.58 241.25 55.87 243.29 60.73C260.69 102.31 260.23 147.89 241.99 189.09C236.46 201.6 228.31 212.29 217.77 220.88C216 222.33 213.86 223.03 211.74 223.03V223.04Z" fill="#93C23B"/>
<path d="M163.4 202.08C156.83 202.08 150.28 200.71 144.09 197.97C120 187.31 109.07 159.05 119.73 134.98C124.2 124.89 122.41 112.97 115.19 104.63C111.74 100.64 112.17 94.61 116.16 91.15C120.15 87.7 126.18 88.13 129.64 92.12C141.68 106.03 144.65 125.89 137.21 142.71C130.82 157.15 137.38 174.1 151.83 180.5C158.83 183.6 166.61 183.78 173.74 181.03C180.87 178.27 186.51 172.9 189.6 165.91C200.95 140.26 201.64 111.73 191.53 85.56C181.42 59.4 161.73 38.74 136.08 27.38C127.95 23.78 119.42 21.22 110.74 19.78C105.54 18.91 102.02 13.99 102.88 8.79C103.75 3.59 108.67 0.0699808 113.87 0.929981C124.14 2.63998 134.21 5.65999 143.81 9.90999C174.13 23.33 197.4 47.75 209.35 78.67C221.3 109.59 220.49 143.32 207.07 173.64C201.91 185.3 192.52 194.25 180.62 198.85C175.03 201.01 169.21 202.08 163.4 202.08Z" fill="#93C23B"/>
</svg>
